<svg width="583" height="160" viewBox="0 0 583 160" fill="none" xmlns="http://www.w3.org/2000/svg">
<path d="M186.535 86.3622C186.535 66.2179 200.608 51.6846 220.108 51.6846C234.733 51.6846 247.61 61.6193 250.83 75.2322L242.643 76.3365C240.252 66.3099 230.778 59.0437 220.108 59.0437C205.392 59.0437 194.905 70.5415 194.905 86.3622C194.905 102.275 205.483 113.773 220.108 113.773C230.594 113.773 240.068 106.69 242.736 97.1245L250.739 98.6877C247.519 111.658 234.64 121.132 220.108 121.132C200.608 121.132 186.442 106.506 186.535 86.3622Z" fill="#10111C"/>
<path d="M259.261 86.3622C259.261 66.126 273.795 51.6846 294.307 51.6846C314.819 51.6846 329.352 66.126 329.352 86.3622C329.352 106.782 314.819 121.132 294.307 121.132C273.795 121.132 259.261 106.782 259.261 86.3622ZM320.89 86.3622C320.89 70.4496 309.852 59.0437 294.307 59.0437C278.762 59.0437 267.631 70.4496 267.631 86.3622C267.631 102.275 278.762 113.773 294.307 113.773C309.852 113.773 320.89 102.275 320.89 86.3622H320.89Z" fill="#10111C"/>
<path d="M333.378 114.969L371.46 62.263V61.343H334.298V53.9844H383.785V57.7554L345.703 110.553V111.474H384.705V118.832H333.378V114.969Z" fill="#10111C"/>
<path d="M395.425 53.9844H439.945V61.3426H403.887V81.5788H436.265V88.9378H403.887V111.474H440.865V118.832H395.425L395.425 53.9844Z" fill="#10111C"/>
<path d="M452.462 53.9844H480.7C494.774 53.9844 504.064 61.7112 504.064 73.6689C504.064 84.7062 495.418 92.433 483.367 92.9848H482.264L505.812 118.832H495.234L472.79 93.4445H460.832V118.832H452.462V53.9844ZM480.7 86.0864C489.99 86.0864 495.693 81.3029 495.693 73.6689C495.693 66.126 489.99 61.3426 480.7 61.3426H460.832V86.0864H480.7Z" fill="#10111C"/>
<path d="M512.623 86.3622C512.623 66.126 527.157 51.6846 547.669 51.6846C568.182 51.6846 582.714 66.126 582.714 86.3622C582.714 106.782 568.181 121.132 547.669 121.132C527.157 121.132 512.623 106.782 512.623 86.3622ZM574.252 86.3622C574.252 70.4496 563.214 59.0437 547.669 59.0437C532.125 59.0437 520.994 70.4496 520.994 86.3622C520.994 102.275 532.124 113.773 547.669 113.773C563.214 113.773 574.252 102.275 574.252 86.3622Z" fill="#10111C"/>
<path opacity="0.92" d="M101.149 3.11579L91.6592 52.3577C91.6505 52.4032 91.6325 52.4465 91.6064 52.4849C91.5803 52.5232 91.5466 52.5558 91.5074 52.5806C91.4683 52.6055 91.4244 52.6221 91.3786 52.6293C91.3328 52.6366 91.286 52.6344 91.241 52.6229C90.0911 52.3337 88.9257 52.11 87.7504 51.9529C87.7043 51.9471 87.6599 51.9318 87.6199 51.9081C87.5799 51.8845 87.5452 51.8528 87.5179 51.8152C87.4906 51.7776 87.4713 51.7348 87.4612 51.6894C87.4511 51.644 87.4505 51.597 87.4592 51.5514L97.0067 2.02139C97.0157 1.9753 97.0339 1.93151 97.0604 1.89268C97.0868 1.85385 97.1208 1.82081 97.1604 1.79555C97.2 1.77029 97.2443 1.75336 97.2906 1.74576C97.337 1.73817 97.3844 1.74009 97.4299 1.75139C98.5999 2.04529 99.7672 2.36449 100.912 2.71929C100.993 2.74485 101.062 2.79938 101.106 2.87249C101.15 2.9456 101.165 3.0322 101.149 3.11579V3.11579Z" fill="#5CC63C"/>
<path opacity="0.84" d="M115.792 10.0193L97.9301 54.623C97.9129 54.6662 97.887 54.7053 97.854 54.738C97.821 54.7708 97.7817 54.7964 97.7385 54.8133C97.6952 54.8303 97.649 54.8382 97.6026 54.8366C97.5562 54.835 97.5106 54.8239 97.4686 54.8039C96.392 54.3012 95.2884 53.8587 94.1627 53.4784C94.1185 53.4639 94.0777 53.4405 94.043 53.4096C94.0082 53.3787 93.9801 53.341 93.9605 53.2988C93.9408 53.2567 93.9301 53.2109 93.9288 53.1644C93.9276 53.1179 93.9359 53.0716 93.9533 53.0284L112.032 7.89114C112.051 7.84553 112.078 7.80434 112.114 7.77031C112.149 7.73628 112.192 7.71018 112.238 7.69375C112.284 7.67733 112.334 7.67094 112.383 7.67503C112.432 7.67911 112.479 7.69357 112.522 7.71744C113.59 8.31564 114.642 8.93924 115.66 9.59864C115.727 9.64258 115.777 9.70853 115.801 9.78525C115.825 9.86196 115.822 9.9447 115.792 10.0193V10.0193Z" fill="#5CC63C"/>
<path opacity="0.76" d="M127.876 20.3653L103.666 58.0326C103.641 58.0717 103.608 58.1052 103.57 58.1312C103.531 58.1571 103.488 58.175 103.442 58.1836C103.397 58.1922 103.35 58.1914 103.305 58.1812C103.259 58.1711 103.217 58.1518 103.179 58.1245C102.217 57.4287 101.218 56.7854 100.187 56.1974C100.146 56.1748 100.111 56.1442 100.083 56.1073C100.054 56.0705 100.034 56.0283 100.023 55.9834C100.012 55.9384 100.01 55.8916 100.017 55.8458C100.025 55.8001 100.042 55.7564 100.067 55.7174L124.738 17.3285C124.766 17.2853 124.804 17.2489 124.847 17.2219C124.891 17.1948 124.94 17.1778 124.991 17.1721C125.043 17.1664 125.094 17.172 125.143 17.1887C125.192 17.2054 125.236 17.2326 125.273 17.2685C126.162 18.1393 127.014 19.0247 127.843 19.9451C127.893 20.002 127.924 20.0738 127.93 20.1497C127.936 20.2255 127.917 20.3013 127.876 20.3653V20.3653Z" fill="#5CC63C"/>
<path opacity="0.68" d="M136.658 33.0925L108.655 62.464C108.623 62.4975 108.584 62.5241 108.542 62.5423C108.499 62.5605 108.454 62.5698 108.407 62.5697C108.361 62.5696 108.315 62.5601 108.273 62.5417C108.231 62.5234 108.192 62.4965 108.161 62.4629C107.338 61.5993 106.468 60.7722 105.561 59.9918C105.526 59.9618 105.497 59.9249 105.477 59.8833C105.456 59.8418 105.444 59.7964 105.442 59.7502C105.439 59.7039 105.447 59.6576 105.463 59.6142C105.479 59.5707 105.504 59.5311 105.536 59.4976L134.322 29.333C134.359 29.2945 134.404 29.2649 134.454 29.2466C134.504 29.2284 134.557 29.2219 134.61 29.2276C134.663 29.2334 134.714 29.2512 134.759 29.2798C134.804 29.3084 134.841 29.347 134.869 29.3925C135.513 30.4682 136.132 31.5683 136.715 32.6925C136.748 32.7568 136.761 32.8299 136.751 32.9016C136.74 32.9733 136.708 33.04 136.658 33.0925Z" fill="#5CC63C"/>
<path opacity="0.6" d="M141.937 46.9356V46.9527L112.713 67.7597C112.675 67.7866 112.632 67.8056 112.587 67.8153C112.541 67.8251 112.495 67.8254 112.449 67.8163C112.403 67.8073 112.36 67.789 112.322 67.7626C112.284 67.7362 112.252 67.7023 112.227 67.6629C111.594 66.6603 110.905 65.6945 110.162 64.7701C110.133 64.734 110.111 64.6924 110.099 64.6477C110.086 64.6029 110.083 64.5561 110.089 64.51C110.095 64.464 110.111 64.4197 110.135 64.3799C110.159 64.3401 110.191 64.3056 110.228 64.2786L140.365 42.8076C140.41 42.7758 140.461 42.7551 140.515 42.747C140.57 42.7389 140.625 42.7437 140.677 42.7611C140.729 42.7784 140.776 42.8078 140.815 42.8468C140.853 42.8858 140.882 42.9334 140.899 42.9856C141.3 44.2804 141.646 45.6011 141.937 46.9356Z" fill="#5CC63C"/>
<path opacity="0.48" d="M143.498 60.5811V61.044L115.697 73.733C115.655 73.7523 115.609 73.7628 115.563 73.7637C115.516 73.7646 115.47 73.7559 115.427 73.7383C115.384 73.7206 115.345 73.6943 115.313 73.6609C115.28 73.6276 115.255 73.588 115.239 73.5445C114.809 72.4401 114.319 71.3605 113.77 70.3106C113.748 70.2696 113.735 70.2247 113.731 70.1785C113.728 70.1323 113.734 70.0859 113.749 70.0421C113.764 69.9983 113.788 69.958 113.819 69.9237C113.85 69.8894 113.888 69.8618 113.93 69.8426L142.901 56.6083C142.953 56.585 143.009 56.5745 143.065 56.5777C143.121 56.5809 143.175 56.5977 143.223 56.6267C143.272 56.6557 143.312 56.6959 143.341 56.744C143.37 56.7921 143.387 56.8465 143.39 56.9026C143.459 58.1233 143.498 59.3456 143.498 60.5811Z" fill="#5CC63C"/>
<path opacity="0.35" d="M142.748 70.1122C142.536 71.4261 142.286 72.7279 141.987 74.0174C141.972 74.0802 141.94 74.1377 141.895 74.1835C141.849 74.2293 141.792 74.2616 141.73 74.2768L117.502 80.1576C117.457 80.1685 117.41 80.1701 117.364 80.1621C117.319 80.1542 117.275 80.1369 117.236 80.1114C117.197 80.0858 117.164 80.0526 117.138 80.0137C117.113 79.9748 117.095 79.9311 117.088 79.8853C116.873 78.7166 116.596 77.5602 116.258 76.4209C116.245 76.3766 116.241 76.3301 116.246 76.2842C116.252 76.2383 116.266 76.1939 116.289 76.1539C116.312 76.1138 116.343 76.0788 116.38 76.0511C116.417 76.0235 116.46 76.0036 116.505 75.9928L142.324 69.7205C142.379 69.7072 142.437 69.7078 142.493 69.7222C142.548 69.7366 142.599 69.7644 142.641 69.8031C142.683 69.8418 142.714 69.8903 142.733 69.9442C142.752 69.9981 142.757 70.0558 142.748 70.1122V70.1122Z" fill="#5CC63C"/>
<path opacity="0.25" d="M139.6 81.9687C139.138 83.2233 138.627 84.4547 138.066 85.6733C138.04 85.7312 137.998 85.7807 137.945 85.8164C137.892 85.8521 137.83 85.8726 137.766 85.8758L117.681 86.8258C117.695 86.6776 117.701 86.5288 117.698 86.3801C117.698 85.2001 117.643 84.0344 117.53 82.8954C117.525 82.8495 117.53 82.8032 117.544 82.7592C117.558 82.7153 117.58 82.6746 117.61 82.6397C117.64 82.6048 117.677 82.5765 117.719 82.5564C117.76 82.5364 117.806 82.525 117.852 82.5231L139.257 81.5023C139.314 81.4998 139.371 81.5115 139.422 81.5362C139.474 81.5609 139.519 81.598 139.553 81.6441C139.586 81.6901 139.609 81.7438 139.617 81.8005C139.625 81.8571 139.619 81.9148 139.6 81.9687V81.9687Z" fill="#5CC63C"/>
<path opacity="0.12" d="M134.656 92.0922C133.964 93.229 133.225 94.3414 132.46 95.4294C132.423 95.4817 132.373 95.5228 132.314 95.5481C132.255 95.5734 132.191 95.582 132.127 95.573L117.35 93.46C117.305 93.4536 117.261 93.4379 117.221 93.414C117.182 93.3901 117.148 93.3585 117.121 93.321C117.094 93.2834 117.075 93.2409 117.065 93.1958C117.056 93.1507 117.055 93.1042 117.064 93.0589C117.286 91.8884 117.449 90.7073 117.551 89.5202C117.554 89.4738 117.567 89.4286 117.589 89.3874C117.611 89.3463 117.641 89.31 117.677 89.2809C117.713 89.2517 117.755 89.2304 117.8 89.2181C117.845 89.2058 117.892 89.2029 117.938 89.2095L134.408 91.5695C134.465 91.5778 134.518 91.6 134.564 91.634C134.61 91.668 134.647 91.7128 134.672 91.7645C134.696 91.8162 134.708 91.8731 134.705 91.9303C134.702 91.9874 134.686 92.043 134.656 92.0922V92.0922Z" fill="#5CC63C"/>
<path opacity="0.05" d="M128.575 100.379C127.713 101.37 126.815 102.336 125.892 103.266C125.846 103.312 125.788 103.344 125.724 103.359C125.661 103.374 125.594 103.37 125.532 103.349L115.382 99.8353C115.338 99.8203 115.298 99.7964 115.264 99.7652C115.23 99.734 115.202 99.6961 115.183 99.6538C115.164 99.6116 115.154 99.5659 115.153 99.5196C115.153 99.4733 115.161 99.4273 115.179 99.3845C115.626 98.2855 116.011 97.1627 116.333 96.0211C116.345 95.9763 116.367 95.9345 116.396 95.8983C116.425 95.8621 116.461 95.8323 116.503 95.8106C116.544 95.789 116.589 95.776 116.635 95.7725C116.682 95.7689 116.728 95.775 116.772 95.7901L128.426 99.8242C128.479 99.8428 128.527 99.8742 128.566 99.9157C128.604 99.9571 128.632 100.007 128.647 100.062C128.662 100.117 128.663 100.174 128.65 100.229C128.638 100.284 128.612 100.336 128.575 100.379V100.379Z" fill="#5CC63C"/>
<path d="M85.0762 0.3707V51.32C85.0763 51.3666 85.0668 51.4127 85.0484 51.4556C85.0299 51.4984 85.0029 51.5369 84.9689 51.5688C84.9349 51.6008 84.8948 51.6254 84.8509 51.6412C84.8071 51.657 84.7604 51.6636 84.7139 51.6607C84.1271 51.6274 83.53 51.6157 82.9334 51.6157C82.3368 51.6157 81.7401 51.6274 81.1534 51.6607C81.1069 51.6636 81.0603 51.657 81.0164 51.6412C80.9725 51.6254 80.9324 51.6008 80.8984 51.5689C80.8645 51.5369 80.8374 51.4984 80.8189 51.4556C80.8005 51.4128 80.791 51.3666 80.791 51.32V0.3707C80.7905 0.280987 80.8253 0.194666 80.8877 0.130273C80.9502 0.0658798 81.0354 0.0285501 81.1251 0.0263C81.7209 0.0122 82.3272 0 82.9334 0C83.5396 0 84.1464 0.0122 84.7422 0.0263C84.8319 0.0285504 84.9171 0.0658834 84.9796 0.130279C85.042 0.194675 85.0767 0.280996 85.0762 0.3707V0.3707Z" fill="#5CC63C"/>
<path d="M145.935 143.804L108.038 110.961C108.003 110.931 107.975 110.894 107.955 110.852C107.935 110.81 107.923 110.765 107.921 110.718C107.919 110.672 107.927 110.626 107.943 110.582C107.96 110.539 107.985 110.5 108.018 110.466C108.843 109.615 109.62 108.718 110.344 107.779C110.372 107.742 110.408 107.711 110.448 107.688C110.489 107.665 110.533 107.651 110.58 107.646C110.626 107.642 110.672 107.646 110.717 107.66C110.761 107.674 110.802 107.697 110.837 107.727L148.954 140.765C148.99 140.796 149.018 140.833 149.039 140.876C149.059 140.918 149.071 140.964 149.073 141.011C149.075 141.058 149.068 141.105 149.051 141.149C149.035 141.193 149.009 141.233 148.977 141.267C148.137 142.133 147.277 142.984 146.397 143.798C146.334 143.856 146.252 143.888 146.167 143.889C146.082 143.89 145.999 143.86 145.935 143.804V143.804Z" fill="#5CC63C"/>
<path opacity="0.84" d="M132.634 153.033L102.941 115.26C102.912 115.223 102.891 115.181 102.879 115.136C102.868 115.091 102.865 115.045 102.872 114.999C102.879 114.953 102.895 114.909 102.92 114.869C102.944 114.83 102.977 114.796 103.015 114.77C103.989 114.089 104.924 113.354 105.816 112.57C105.851 112.539 105.891 112.515 105.936 112.501C105.98 112.486 106.026 112.481 106.072 112.485C106.119 112.489 106.164 112.502 106.205 112.524C106.245 112.546 106.281 112.577 106.31 112.613L136.357 150.842C136.388 150.881 136.409 150.925 136.421 150.973C136.433 151.021 136.434 151.071 136.425 151.119C136.416 151.167 136.397 151.213 136.369 151.254C136.341 151.294 136.305 151.328 136.262 151.353C135.211 151.978 134.145 152.578 133.065 153.129C132.993 153.165 132.911 153.176 132.832 153.158C132.754 153.141 132.683 153.096 132.634 153.033Z" fill="#5CC63C"/>
<path opacity="0.76" d="M117.633 158.992L97.1212 119.19C97.0998 119.149 97.0871 119.104 97.0839 119.058C97.0806 119.011 97.0868 118.965 97.1021 118.921C97.1175 118.877 97.1416 118.837 97.173 118.803C97.2044 118.769 97.2425 118.742 97.2849 118.723C98.3686 118.238 99.4252 117.694 100.45 117.095C100.49 117.071 100.534 117.056 100.58 117.05C100.626 117.044 100.673 117.047 100.718 117.06C100.762 117.073 100.804 117.094 100.84 117.124C100.876 117.153 100.905 117.19 100.926 117.231L121.832 157.794C121.855 157.84 121.868 157.89 121.87 157.942C121.871 157.993 121.861 158.044 121.841 158.091C121.82 158.138 121.789 158.18 121.751 158.214C121.712 158.248 121.666 158.273 121.617 158.287C120.418 158.621 119.225 158.917 118.014 159.174C117.939 159.189 117.861 159.18 117.793 159.147C117.724 159.115 117.668 159.06 117.633 158.992V158.992Z" fill="#5CC63C"/>
<path opacity="0.68" d="M102.218 159.564L90.7873 120.625C90.7743 120.581 90.7704 120.534 90.7759 120.488C90.7814 120.442 90.7962 120.398 90.8194 120.358C90.8426 120.318 90.8737 120.283 90.9108 120.256C90.9479 120.228 90.9903 120.209 91.0352 120.198C92.1952 119.917 93.3458 119.578 94.4752 119.183C94.5189 119.167 94.5652 119.161 94.6115 119.164C94.6577 119.167 94.7028 119.179 94.7441 119.2C94.7854 119.221 94.8219 119.251 94.8514 119.286C94.8809 119.322 94.9029 119.363 94.9158 119.408L106.642 159.421C106.657 159.472 106.66 159.526 106.651 159.578C106.642 159.631 106.62 159.68 106.589 159.723C106.558 159.766 106.517 159.801 106.469 159.826C106.422 159.851 106.37 159.864 106.317 159.865C105.063 159.885 103.801 159.871 102.536 159.813C102.463 159.81 102.394 159.784 102.337 159.739C102.28 159.695 102.238 159.633 102.218 159.564V159.564Z" fill="#5CC63C"/>
<path opacity="0.6" d="M87.5898 157.212L87.575 157.204L84.1715 121.491C84.167 121.444 84.1721 121.398 84.1863 121.353C84.2006 121.309 84.2237 121.268 84.2543 121.234C84.285 121.199 84.3224 121.17 84.3644 121.151C84.4063 121.131 84.4519 121.12 84.4983 121.118C85.683 121.071 86.8641 120.958 88.0359 120.777C88.0818 120.769 88.1287 120.771 88.1738 120.783C88.2189 120.794 88.2612 120.815 88.298 120.843C88.3348 120.872 88.3654 120.907 88.3878 120.948C88.4103 120.989 88.4241 121.034 88.4285 121.08L91.9509 157.915C91.9561 157.969 91.9483 158.025 91.9282 158.076C91.908 158.127 91.8762 158.172 91.8352 158.208C91.7941 158.245 91.7451 158.271 91.6921 158.285C91.639 158.299 91.5835 158.3 91.5299 158.288C90.2081 157.988 88.8912 157.627 87.5898 157.212Z" fill="#5CC63C"/>
<path opacity="0.48" d="M74.9936 151.74L74.5928 151.509L77.5075 121.088C77.512 121.042 77.5259 120.997 77.5483 120.957C77.5708 120.916 77.6014 120.88 77.6382 120.852C77.675 120.824 77.7172 120.803 77.7623 120.792C77.8073 120.78 77.8542 120.778 77.9001 120.786C79.0711 120.966 80.2512 121.081 81.4351 121.131C81.4813 121.133 81.5268 121.144 81.5686 121.164C81.6103 121.184 81.6476 121.212 81.678 121.247C81.7085 121.282 81.7315 121.323 81.7457 121.367C81.7598 121.411 81.7648 121.457 81.7604 121.503L78.7325 153.21C78.7271 153.266 78.7081 153.32 78.6773 153.367C78.6464 153.414 78.6045 153.453 78.5553 153.48C78.5061 153.507 78.4509 153.522 78.3947 153.523C78.3384 153.524 78.2828 153.512 78.2325 153.486C77.1418 152.935 76.0636 152.358 74.9936 151.74Z" fill="#5CC63C"/>
<path opacity="0.35" d="M67.1149 146.324C66.0832 145.484 65.0829 144.613 64.114 143.712C64.067 143.668 64.0331 143.611 64.0162 143.549C63.9992 143.487 63.9999 143.421 64.018 143.359L71.0412 119.438C71.0543 119.394 71.0765 119.352 71.1063 119.317C71.1361 119.281 71.1729 119.252 71.2145 119.231C71.256 119.21 71.3014 119.198 71.3479 119.195C71.3943 119.192 71.4408 119.199 71.4845 119.215C72.6039 119.614 73.7437 119.952 74.8991 120.23C74.9441 120.24 74.9864 120.26 75.0235 120.288C75.0606 120.315 75.0917 120.35 75.1149 120.39C75.1381 120.43 75.1528 120.474 75.1583 120.52C75.1638 120.566 75.1599 120.613 75.1468 120.657L67.6668 146.153C67.6506 146.207 67.6211 146.257 67.581 146.298C67.5408 146.339 67.4913 146.369 67.4367 146.386C67.3821 146.403 67.3242 146.406 67.2681 146.395C67.212 146.385 67.1594 146.36 67.1149 146.324V146.324Z" fill="#5CC63C"/>
<path opacity="0.25" d="M58.4211 137.669C57.5658 136.641 56.7521 135.581 55.9799 134.488C55.9431 134.436 55.9213 134.375 55.9169 134.311C55.9124 134.247 55.9255 134.184 55.9547 134.127L65.1763 116.259C65.2976 116.345 65.4237 116.424 65.554 116.496C66.5757 117.086 67.613 117.621 68.6556 118.093C68.6976 118.112 68.7354 118.139 68.7666 118.173C68.7978 118.207 68.8217 118.247 68.8369 118.291C68.852 118.334 68.8581 118.38 68.8547 118.426C68.8513 118.472 68.8386 118.517 68.8173 118.558L58.9973 137.605C58.9708 137.656 58.9323 137.699 58.885 137.732C58.8378 137.764 58.7833 137.784 58.7263 137.791C58.6693 137.797 58.6117 137.789 58.5585 137.768C58.5052 137.747 58.458 137.713 58.4211 137.669V137.669Z" fill="#5CC63C"/>
<path opacity="0.12" d="M52.1274 128.325C51.4894 127.156 50.8954 125.96 50.3357 124.754C50.3089 124.696 50.2986 124.632 50.3061 124.568C50.3135 124.505 50.3384 124.444 50.3779 124.394L59.5979 112.654C59.6263 112.618 59.6617 112.588 59.7022 112.565C59.7426 112.543 59.7871 112.529 59.833 112.525C59.8789 112.521 59.9252 112.526 59.9691 112.54C60.013 112.554 60.0536 112.576 60.0885 112.607C60.9907 113.385 61.9323 114.116 62.9094 114.798C62.9478 114.824 62.9804 114.858 63.0051 114.897C63.0299 114.937 63.0464 114.981 63.0534 115.027C63.0605 115.073 63.058 115.12 63.0462 115.165C63.0344 115.21 63.0135 115.252 62.9848 115.289L52.7048 128.371C52.6692 128.416 52.6232 128.452 52.5706 128.475C52.5181 128.497 52.4607 128.507 52.4036 128.502C52.3465 128.498 52.2914 128.479 52.2432 128.448C52.195 128.417 52.1552 128.375 52.1274 128.325V128.325Z" fill="#5CC63C"/>
<path opacity="0.05" d="M47.9925 118.915C47.5653 117.672 47.1781 116.412 46.8343 115.148C46.8172 115.085 46.8183 115.018 46.8375 114.956C46.8567 114.893 46.8931 114.837 46.9426 114.794L55.0608 107.762C55.0958 107.731 55.1366 107.709 55.1808 107.695C55.2249 107.681 55.2715 107.676 55.3176 107.68C55.3637 107.685 55.4083 107.699 55.4488 107.722C55.4892 107.744 55.5246 107.775 55.5528 107.812C56.2812 108.748 57.0609 109.643 57.8884 110.493C57.921 110.526 57.9465 110.566 57.9633 110.609C57.9801 110.652 57.9877 110.699 57.9859 110.745C57.984 110.792 57.9726 110.837 57.9524 110.879C57.9322 110.921 57.9036 110.958 57.8684 110.989L48.5471 119.063C48.5042 119.1 48.453 119.126 48.3978 119.139C48.3427 119.151 48.2853 119.15 48.2306 119.135C48.176 119.121 48.1257 119.093 48.0842 119.055C48.0427 119.016 48.0112 118.968 47.9925 118.915V118.915Z" fill="#5CC63C"/>
<path d="M156.35 131.259L112.229 105.78C112.189 105.756 112.154 105.725 112.126 105.688C112.098 105.65 112.078 105.608 112.068 105.562C112.057 105.517 112.056 105.47 112.064 105.424C112.072 105.378 112.09 105.334 112.116 105.295C112.438 104.804 112.747 104.293 113.045 103.776C113.343 103.26 113.632 102.737 113.896 102.212C113.917 102.17 113.946 102.133 113.982 102.103C114.017 102.073 114.059 102.05 114.103 102.037C114.148 102.024 114.195 102.019 114.241 102.025C114.288 102.03 114.332 102.045 114.373 102.068L158.494 127.548C158.571 127.592 158.629 127.665 158.653 127.752C158.678 127.838 158.668 127.931 158.625 128.009C158.339 128.533 158.046 129.064 157.743 129.589C157.44 130.114 157.126 130.633 156.816 131.142C156.769 131.219 156.694 131.274 156.607 131.295C156.52 131.317 156.428 131.304 156.35 131.259Z" fill="#5CC63C"/>
<path opacity="0.92" d="M1.70553 112.231L49.0985 95.8381C49.1424 95.8229 49.1889 95.8168 49.2352 95.8203C49.2815 95.8237 49.3266 95.8367 49.3677 95.8582C49.4088 95.8797 49.445 95.9095 49.4742 95.9456C49.5034 95.9817 49.5249 96.0234 49.5373 96.0681C49.8615 97.2087 50.2501 98.3299 50.7013 99.4265C50.7193 99.4693 50.7283 99.5154 50.7278 99.5619C50.7273 99.6084 50.7173 99.6543 50.6983 99.6967C50.6794 99.7391 50.6519 99.7773 50.6177 99.8087C50.5834 99.8401 50.5431 99.8642 50.4991 99.8794L2.82783 116.365C2.78343 116.381 2.73636 116.387 2.68949 116.383C2.64262 116.38 2.59695 116.367 2.55524 116.345C2.51354 116.324 2.47668 116.294 2.44692 116.258C2.41716 116.221 2.39511 116.179 2.38213 116.134C2.05213 114.974 1.74483 113.803 1.47993 112.634C1.46146 112.551 1.47424 112.464 1.51585 112.389C1.55746 112.315 1.62498 112.259 1.70553 112.231V112.231Z" fill="#5CC63C"/>
<path opacity="0.84" d="M0.365327 96.098L47.9253 89.275C47.9713 89.2683 48.0181 89.2712 48.063 89.2834C48.1078 89.2956 48.1497 89.3168 48.186 89.3458C48.2223 89.3748 48.2522 89.4109 48.274 89.4519C48.2958 89.4929 48.309 89.538 48.3127 89.5843C48.4153 90.768 48.5836 91.945 48.8169 93.1101C48.8263 93.1555 48.8264 93.2025 48.817 93.248C48.8076 93.2934 48.789 93.3365 48.7623 93.3746C48.7357 93.4126 48.7015 93.4448 48.662 93.4691C48.6224 93.4935 48.5783 93.5095 48.5323 93.5162L0.401327 100.418C0.352622 100.425 0.303004 100.422 0.255767 100.408C0.20853 100.394 0.164755 100.371 0.127349 100.339C0.0899434 100.307 0.0597623 100.267 0.0388104 100.223C0.0178584 100.178 0.006615 100.13 0.00582672 100.08C-0.00987328 98.8571 0.00472672 97.6342 0.0671267 96.423C0.0715757 96.3427 0.103724 96.2664 0.158097 96.2071C0.21247 96.1479 0.285704 96.1093 0.365327 96.098V96.098Z" fill="#5CC63C"/>
<path opacity="0.76" d="M3.28727 80.4613L48.0129 82.6039C48.0592 82.606 48.1046 82.6176 48.1462 82.6379C48.1879 82.6581 48.225 82.6867 48.2552 82.7219C48.2855 82.757 48.3082 82.798 48.322 82.8423C48.3358 82.8865 48.3404 82.9331 48.3356 82.9792C48.2139 84.1603 48.156 85.3472 48.1622 86.5345C48.1629 86.5809 48.1541 86.6269 48.1364 86.6698C48.1186 86.7127 48.0922 86.7514 48.0589 86.7837C48.0256 86.8159 47.9859 86.841 47.9425 86.8574C47.8991 86.8737 47.8528 86.881 47.8065 86.8787L2.22527 84.6972C2.1739 84.6945 2.12377 84.6805 2.07848 84.6561C2.0332 84.6317 1.99388 84.5976 1.96336 84.5561C1.93285 84.5147 1.91189 84.4671 1.902 84.4166C1.89211 84.3661 1.89353 84.3141 1.90617 84.2642C2.21617 83.0594 2.55677 81.8781 2.94007 80.7007C2.96383 80.6284 3.01064 80.5658 3.07335 80.5225C3.13605 80.4793 3.21119 80.4578 3.28727 80.4613Z" fill="#5CC63C"/>
<path opacity="0.68" d="M9.92078 66.4922L49.357 76.0666C49.4019 76.0774 49.4442 76.0973 49.4812 76.125C49.5181 76.1527 49.5491 76.1877 49.5721 76.2278C49.5951 76.2679 49.6097 76.3122 49.615 76.3582C49.6203 76.4041 49.6162 76.4506 49.6029 76.4949C49.2662 77.6394 48.9846 78.806 48.7618 79.9814C48.7534 80.0269 48.7359 80.0703 48.7101 80.1089C48.6844 80.1474 48.6511 80.1803 48.6122 80.2055C48.5733 80.2307 48.5297 80.2477 48.484 80.2554C48.4383 80.2631 48.3915 80.2614 48.3465 80.2504L7.83208 70.3946C7.78036 70.382 7.73223 70.3577 7.69142 70.3235C7.65061 70.2894 7.61822 70.2463 7.59677 70.1976C7.57532 70.1489 7.56538 70.0959 7.56772 70.0427C7.57006 69.9895 7.58463 69.9376 7.61028 69.891C8.22028 68.7954 8.86328 67.7093 9.54588 66.6425C9.58502 66.5816 9.64214 66.5344 9.70933 66.5074C9.77651 66.4805 9.85042 66.4752 9.92078 66.4922Z" fill="#5CC63C"/>
<path opacity="0.6" d="M19.2721 55.0008L19.2869 54.9922L51.9156 69.9048C51.9578 69.924 51.9956 69.9517 52.0268 69.9862C52.0579 70.0206 52.0816 70.061 52.0965 70.105C52.1115 70.1489 52.1172 70.1955 52.1134 70.2418C52.1097 70.288 52.0965 70.333 52.0747 70.374C51.5226 71.4232 51.0306 72.503 50.6011 73.6081C50.5845 73.6515 50.5593 73.6911 50.5268 73.7244C50.4944 73.7577 50.4555 73.784 50.4125 73.8017C50.3695 73.8193 50.3234 73.828 50.2769 73.8271C50.2304 73.8262 50.1846 73.8159 50.1424 73.7966L16.4827 58.4259C16.4328 58.4031 16.389 58.3688 16.3549 58.3259C16.3208 58.283 16.2973 58.2326 16.2863 58.1789C16.2754 58.1252 16.2772 58.0697 16.2918 58.0168C16.3064 57.964 16.3332 57.9153 16.3702 57.8748C17.291 56.8799 18.2619 55.9199 19.2721 55.0008Z" fill="#5CC63C"/>
<path opacity="0.48" d="M30.3114 46.829L30.7123 46.5977L55.598 64.3347C55.6359 64.3616 55.6678 64.3961 55.6918 64.4359C55.7159 64.4757 55.7314 64.52 55.7376 64.5661C55.7438 64.6122 55.7404 64.6591 55.7278 64.7038C55.7151 64.7485 55.6933 64.7902 55.6639 64.8262C54.922 65.7499 54.232 66.7143 53.5972 67.7147C53.5725 67.7538 53.5401 67.7876 53.5019 67.8138C53.4637 67.84 53.4206 67.8581 53.3751 67.8671C53.3297 67.876 53.2829 67.8756 53.2376 67.8658C53.1924 67.856 53.1496 67.8371 53.1119 67.8102L27.1687 49.3316C27.1229 49.2989 27.0858 49.2557 27.0605 49.2055C27.0352 49.1553 27.0225 49.0997 27.0235 49.0435C27.0245 48.9873 27.0391 48.9322 27.0662 48.883C27.0932 48.8337 27.1318 48.7918 27.1787 48.7608C28.2023 48.0917 29.2413 47.4466 30.3114 46.829Z" fill="#5CC63C"/>
<path opacity="0.35" d="M38.9411 42.7144C40.1851 42.2414 41.4395 41.8106 42.7042 41.4222C42.7659 41.4035 42.8317 41.4023 42.894 41.4188C42.9564 41.4352 43.013 41.4687 43.0575 41.5154L60.26 59.5596C60.2921 59.5933 60.3169 59.6332 60.333 59.6769C60.349 59.7206 60.3559 59.7671 60.3533 59.8135C60.3506 59.86 60.3384 59.9054 60.3175 59.947C60.2966 59.9885 60.2673 60.0254 60.2316 60.0552C59.3266 60.8254 58.4633 61.6432 57.6453 62.5052C57.6136 62.5388 57.5753 62.5656 57.5329 62.584C57.4905 62.6023 57.4448 62.6118 57.3985 62.6119C57.3523 62.612 57.3066 62.6027 57.2641 62.5845C57.2216 62.5663 57.1832 62.5396 57.1514 62.5061L38.814 43.2778C38.7747 43.2363 38.7463 43.1859 38.7312 43.1308C38.7161 43.0758 38.7147 43.0179 38.7273 42.9622C38.7398 42.9065 38.7659 42.8548 38.8032 42.8115C38.8405 42.7683 38.8879 42.7349 38.9411 42.7144V42.7144Z" fill="#5CC63C"/>
<path opacity="0.25" d="M50.7839 39.515C52.1015 39.2882 53.4239 39.115 54.7591 38.9916C54.8227 38.9859 54.8867 38.9977 54.9441 39.0257C55.0014 39.0537 55.05 39.0969 55.0846 39.1505L65.9462 56.0718C65.811 56.1339 65.6793 56.2034 65.5517 56.2801C64.5298 56.8701 63.548 57.5007 62.6177 58.1674C62.5804 58.1945 62.5379 58.2136 62.4929 58.2237C62.448 58.2337 62.4014 58.2344 62.3561 58.2257C62.3109 58.2171 62.2679 58.1993 62.2298 58.1734C62.1917 58.1475 62.1592 58.114 62.1345 58.0751L50.5516 40.0456C50.5209 39.9974 50.5025 39.9423 50.4981 39.8852C50.4937 39.8281 50.5034 39.7708 50.5263 39.7184C50.5493 39.666 50.5848 39.62 50.6297 39.5845C50.6747 39.5491 50.7276 39.5252 50.7839 39.515V39.515Z" fill="#5CC63C"/>
<path opacity="0.12" d="M62.0227 38.7373C63.3535 38.7692 64.6862 38.8529 66.0107 38.9714C66.0745 38.9772 66.1354 39.0006 66.1867 39.0388C66.2381 39.0771 66.2778 39.1288 66.3016 39.1882L71.8569 53.0435C71.8742 53.0863 71.8826 53.1321 71.8816 53.1782C71.8806 53.2243 71.8703 53.2697 71.8512 53.3117C71.8321 53.3537 71.8046 53.3913 71.7705 53.4224C71.7364 53.4534 71.6964 53.4772 71.6528 53.4922C70.5277 53.8844 69.4234 54.334 68.3443 54.8392C68.3024 54.8593 68.2567 54.8705 68.2102 54.8723C68.1638 54.8741 68.1174 54.8663 68.074 54.8494C68.0307 54.8325 67.9913 54.8069 67.9582 54.7742C67.9251 54.7415 67.8991 54.7023 67.8818 54.6592L61.6936 39.2143C61.6724 39.1611 61.6647 39.1034 61.6712 39.0464C61.6776 38.9895 61.698 38.935 61.7306 38.8878C61.7631 38.8406 61.8068 38.8022 61.8578 38.776C61.9087 38.7497 61.9654 38.7364 62.0227 38.7373V38.7373Z" fill="#5CC63C"/>
<path opacity="0.05" d="M72.2395 39.8626C73.5295 40.1141 74.8145 40.4091 76.0808 40.7434C76.1439 40.7602 76.2011 40.7945 76.2456 40.8422C76.2902 40.89 76.3204 40.9493 76.3328 41.0135L78.3628 51.5606C78.3717 51.606 78.3711 51.6528 78.3612 51.6981C78.3512 51.7433 78.3321 51.7861 78.3051 51.8236C78.278 51.8612 78.2435 51.8929 78.2037 51.9166C78.1639 51.9404 78.1197 51.9557 78.0738 51.9618C76.8988 52.1244 75.7337 52.352 74.5838 52.6436C74.5388 52.6553 74.4918 52.6577 74.4458 52.6506C74.3998 52.6435 74.3557 52.627 74.3163 52.6022C74.2769 52.5773 74.2431 52.5447 74.2169 52.5062C74.1906 52.4677 74.1726 52.4243 74.1638 52.3786L71.8332 40.2686C71.8227 40.2129 71.8259 40.1556 71.8426 40.1015C71.8593 40.0474 71.889 39.9982 71.929 39.9581C71.9691 39.9181 72.0183 39.8885 72.0724 39.8718C72.1265 39.8552 72.1839 39.852 72.2395 39.8626Z" fill="#5CC63C"/>
<path d="M7.3605 127.524L51.4898 102.059C51.5301 102.035 51.5748 102.02 51.6212 102.015C51.6675 102.01 51.7144 102.014 51.759 102.027C51.8036 102.041 51.845 102.063 51.8806 102.093C51.9162 102.123 51.9453 102.16 51.966 102.202C52.2304 102.727 52.5187 103.25 52.8169 103.767C53.1151 104.283 53.4234 104.794 53.7457 105.286C53.7715 105.325 53.7891 105.369 53.7974 105.415C53.8056 105.461 53.8044 105.508 53.7937 105.553C53.783 105.598 53.7631 105.641 53.7353 105.679C53.7074 105.716 53.6722 105.747 53.6318 105.77L9.5025 131.236C9.42503 131.281 9.33292 131.294 9.24593 131.272C9.15894 131.25 9.084 131.195 9.0372 131.119C8.7272 130.609 8.4134 130.09 8.1104 129.565C7.8074 129.04 7.5147 128.509 7.2291 127.985C7.18627 127.906 7.17604 127.814 7.20061 127.728C7.22517 127.642 7.28258 127.568 7.3605 127.524Z" fill="#5CC63C"/>
</svg>
